<?xml version="1.0" standalone="no"?>
<!DOCTYPE svg PUBLIC "-//W3C//DTD SVG 20010904//EN"
 "http://www.w3.org/TR/2001/REC-SVG-20010904/DTD/svg10.dtd">
<svg version="1.0" xmlns="http://www.w3.org/2000/svg"
 width="480.000000pt" height="480.000000pt" viewBox="0 0 480.000000 480.000000"
 preserveAspectRatio="xMidYMid meet">
<metadata>
Created by potrace 1.11, written by Peter Selinger 2001-2013
</metadata>
<g transform="translate(0.000000,480.000000) scale(0.100000,-0.100000)"
fill="#000000" stroke="none">
<path d="M2250 4764 c0 -29 8 -44 38 -73 20 -20 45 -40 55 -46 16 -9 16 -23
-6 -253 l-23 -244 25 -10 c25 -9 106 -6 117 5 3 3 -4 105 -15 228 -21 224 -24
310 -10 288 4 -6 12 -8 19 -4 9 6 9 10 -1 17 -10 7 -9 8 5 4 22 -8 56 19 56
44 0 9 5 21 11 27 12 12 -4 53 -22 53 -6 0 -6 -7 1 -19 14 -27 13 -34 -6 -27
-11 4 -14 0 -12 -17 2 -16 -2 -22 -14 -21 -10 1 -16 -2 -13 -6 3 -4 -6 -11
-20 -14 -14 -4 -25 -11 -25 -16 0 -5 -7 -7 -15 -4 -8 4 -15 1 -15 -6 0 -6 -5
-8 -10 -5 -6 4 -8 10 -5 15 3 4 -9 13 -25 19 -17 5 -30 15 -30 21 0 7 -8 9
-20 5 -20 -6 -26 8 -22 58 1 9 -3 17 -8 17 -6 0 -10 -16 -10 -36z m70 -74 c11
-11 16 -20 12 -20 -5 0 -17 9 -27 20 -10 11 -15 20 -12 20 4 0 16 -9 27 -20z"/>
<path d="M2282 4760 c0 -14 2 -19 5 -12 2 6 2 18 0 25 -3 6 -5 1 -5 -13z"/>
<path d="M2045 4144 c-181 -32 -278 -71 -319 -127 -19 -26 -19 -30 -6 -55 32
-56 190 -114 358 -130 65 -6 82 -5 82 5 0 7 8 13 18 14 9 0 -37 14 -102 30
-190 47 -222 80 -151 157 31 35 62 52 195 110 32 14 22 13 -75 -4z"/>
<path d="M2680 4138 c14 -6 45 -20 69 -31 25 -11 58 -29 74 -40 29 -22 67 -76
67 -96 0 -25 -84 -65 -190 -91 -85 -20 -107 -29 -98 -38 41 -41 340 22 421 89
83 69 21 138 -168 187 -98 25 -214 39 -175 20z"/>
<path d="M936 3535 c-11 -8 -28 -15 -37 -15 -10 0 -32 -14 -49 -32 -142 -142
-161 -669 -32 -884 21 -36 40 -51 91 -75 61 -29 67 -30 96 -16 42 20 88 109
117 223 19 77 22 116 23 289 0 175 -3 211 -23 289 -29 114 -51 163 -91 204
-35 35 -65 40 -95 17z"/>
<path d="M3736 3509 c-38 -45 -77 -148 -97 -259 -16 -86 -16 -345 0 -445 25
-152 90 -287 145 -301 37 -9 136 45 168 91 57 86 90 241 90 430 -1 202 -35
360 -97 441 -26 34 -118 84 -155 84 -10 0 -34 -19 -54 -41z"/>
<path d="M1603 2986 c-191 -63 -323 -245 -323 -444 1 -190 148 -380 339 -436
67 -20 188 -21 257 -2 160 43 296 183 334 344 17 73 8 193 -19 264 -45 117
-151 223 -268 269 -89 34 -226 36 -320 5z m230 -130 c49 -18 77 -43 71 -64 -3
-11 1 -9 12 6 9 12 22 22 28 22 7 0 6 -3 -2 -8 -9 -6 1 -18 33 -41 25 -18 55
-46 67 -62 12 -16 28 -27 34 -25 8 3 18 -19 28 -60 34 -135 -18 -274 -137
-363 -141 -106 -349 -90 -471 36 -26 26 -59 73 -74 103 -23 47 -27 67 -26 140
0 49 5 93 13 105 11 19 12 18 6 -5 l-6 -25 15 25 c9 17 11 27 4 31 -6 4 -7 12
-3 19 6 9 9 9 15 1 4 -8 17 3 34 29 15 22 31 38 36 35 6 -4 10 -2 10 3 0 6 19
20 41 32 23 11 49 30 58 40 30 36 146 50 214 26z m-288 -56 c-3 -5 -12 -10
-18 -10 -7 0 -6 4 3 10 19 12 23 12 15 0z"/>
<path d="M1590 2791 c0 -6 5 -13 10 -16 6 -3 10 1 10 9 0 9 -4 16 -10 16 -5 0
-10 -4 -10 -9z"/>
<path d="M2081 2644 c0 -11 3 -14 6 -6 3 7 2 16 -1 19 -3 4 -6 -2 -5 -13z"/>
<path d="M2930 3000 c-106 -26 -222 -105 -281 -193 -141 -212 -87 -497 121
-636 152 -101 350 -109 507 -20 66 38 150 129 185 201 125 256 -23 569 -306
644 -56 15 -171 17 -226 4z m224 -157 c15 -8 31 -23 33 -34 4 -15 9 -17 25 -8
10 6 24 8 31 5 7 -2 3 -5 -8 -6 -20 -1 -20 -1 -1 -15 11 -8 28 -15 38 -15 10
0 18 -3 18 -7 0 -5 7 -17 16 -28 13 -17 16 -18 25 -5 8 12 9 11 4 -6 -3 -13 1
-26 10 -34 8 -7 15 -20 15 -29 0 -14 2 -14 11 -1 9 12 10 11 6 -7 -3 -12 0
-24 6 -26 6 -2 11 -37 11 -88 1 -70 -3 -93 -25 -139 -106 -228 -410 -281 -586
-103 -27 26 -58 69 -71 95 -29 60 -44 148 -28 167 8 11 8 13 -1 8 -15 -9 -6
56 14 93 11 22 13 23 14 5 0 -16 2 -17 7 -4 13 29 65 88 74 83 4 -3 8 1 8 9 0
17 54 42 69 32 6 -3 15 4 20 17 5 13 15 29 23 36 39 32 183 35 242 5z m54 -28
c-3 -3 -9 2 -12 12 -6 14 -5 15 5 6 7 -7 10 -15 7 -18z m-338 -5 c8 -5 11 -10
5 -10 -5 0 -17 5 -25 10 -8 5 -10 10 -5 10 6 0 17 -5 25 -10z"/>
<path d="M2691 2624 c0 -11 3 -14 6 -6 3 7 2 16 -1 19 -3 4 -6 -2 -5 -13z"/>
<path d="M1962 1842 c-41 -34 -55 -101 -28 -131 16 -18 16 -21 1 -44 -16 -25
-32 -112 -105 -577 -69 -439 -65 -395 -44 -424 11 -14 22 -26 25 -26 4 0 10
21 13 48 7 43 14 94 61 392 53 341 88 547 96 562 8 15 15 14 72 -12 161 -75
483 -80 667 -9 30 11 61 25 67 31 9 7 15 4 23 -13 9 -24 50 -250 50 -283 0
-14 -17 -16 -140 -16 -111 0 -140 3 -140 13 0 8 -8 21 -18 30 -16 14 -43 17
-171 17 -84 0 -161 -4 -171 -10 -25 -13 -41 -65 -30 -95 15 -40 40 -45 204
-45 l155 0 23 30 22 30 138 0 c76 0 138 -3 138 -7 0 -5 29 -189 75 -478 8 -49
17 -111 21 -137 7 -53 13 -57 37 -30 19 21 21 50 8 119 -13 69 -26 147 -86
526 -34 220 -59 346 -69 362 -15 23 -15 28 -1 47 26 39 19 82 -21 123 -40 42
-29 41 -209 15 -107 -15 -386 -12 -499 5 -127 19 -125 19 -164 -13z m511 -478
c32 -6 37 -10 37 -33 0 -15 -5 -32 -12 -39 -14 -14 -205 -17 -226 -3 -8 5 -12
21 -10 37 2 23 9 30 33 35 42 9 133 10 178 3z"/>
<path d="M1680 1749 c-55 -23 -107 -90 -113 -149 -3 -22 -20 -48 -56 -84 l-52
-53 50 -6 c63 -7 88 -23 103 -64 l12 -33 21 20 c17 16 30 19 66 14 l45 -6 29
143 c15 79 29 162 29 184 l1 40 -55 2 c-30 1 -66 -2 -80 -8z"/>
<path d="M2975 1749 c-8 -12 -5 -30 33 -221 29 -151 31 -153 98 -128 22 9 31
7 49 -10 26 -25 35 -25 35 -2 0 33 44 63 102 71 l53 6 -62 65 c-35 36 -63 73
-63 83 0 44 -60 116 -113 136 -37 14 -124 14 -132 0z"/>
<path d="M1554 1272 c-104 -47 -189 -121 -242 -214 -15 -27 -31 -48 -35 -48
-5 0 -5 -4 -2 -10 4 -6 -22 -10 -72 -10 -197 -1 -350 -81 -355 -188 -1 -35 17
-102 28 -102 2 0 21 19 42 42 54 60 140 98 224 98 117 0 183 -36 277 -150 l21
-25 25 30 c42 51 84 146 109 247 29 119 49 258 44 315 l-3 42 -61 -27z"/>
<path d="M3180 1268 c0 -49 17 -177 36 -263 32 -149 85 -276 135 -320 20 -19
21 -19 31 0 6 11 34 43 63 71 123 122 313 117 436 -10 l46 -47 18 37 c28 58
16 110 -37 160 -63 60 -140 86 -268 91 -127 5 -137 8 -120 28 10 12 10 15 -1
15 -8 0 -25 17 -38 38 -58 89 -162 175 -246 203 -22 8 -43 18 -47 24 -4 5 -8
-7 -8 -27z"/>
<path d="M1210 662 c-97 -16 -140 -153 -73 -233 23 -27 25 -32 12 -56 -7 -14
-37 -47 -66 -73 -29 -27 -53 -51 -53 -53 0 -3 10 -7 21 -10 16 -4 34 6 71 41
27 25 56 58 65 73 14 23 21 26 48 22 39 -6 105 25 128 61 21 32 22 117 2 156
-27 52 -93 83 -155 72z"/>
<path d="M3502 653 c-92 -45 -109 -182 -31 -248 24 -19 42 -25 79 -25 35 0 52
-5 58 -16 21 -38 117 -124 137 -124 37 0 34 10 -17 58 -27 25 -59 59 -70 75
-20 28 -20 28 0 50 67 74 53 186 -29 227 -46 24 -83 25 -127 3z"/>
<path d="M2000 484 c0 -66 68 -164 114 -164 8 0 31 -33 51 -75 57 -115 136
-175 230 -175 33 0 99 29 130 57 32 28 82 104 101 151 11 28 22 42 34 42 45 0
101 75 115 153 l7 38 -38 -15 c-179 -70 -440 -80 -629 -23 -44 13 -88 27 -97
32 -15 6 -18 2 -18 -21z"/>
</g>
</svg>
